<svg xmlns="http://www.w3.org/2000/svg" xmlns:xlink="http://www.w3.org/1999/xlink" width="100%" height="100%" version="1.1" viewBox="0 0 32 32" xml:space="preserve" style="fill-rule:evenodd;clip-rule:evenodd;stroke-linecap:round;stroke-linejoin:round;stroke-miterlimit:1.5"><g id="Ebene1"><g><path d="M12.33,27.504L11.129,25.169L8.731,10.614L12.971,4.573L20.243,8.631L23.191,15.015L18.735,25.332L12.33,27.504Z" style="fill:none;stroke:#fff;stroke-width:.75px" transform="matrix(1.33097,0,0,1.33097,-5.24353,-5.34645)"/></g><g><path d="M19.398,12.785L12.409,27.333L19.398,12.785Z" style="fill:none;stroke:#fff;stroke-width:.75px" transform="matrix(1.33097,0,0,1.33097,-5.24353,-5.34645)"/></g><g><path d="M18.679,25.289L19.398,12.785L20.233,8.768L19.398,12.785C19.398,12.785 13.285,7.775 13.283,7.79L13.02,4.806L13.283,7.79L8.731,10.617" style="fill:none;stroke:#fff;stroke-width:.75px" transform="matrix(1.33097,0,0,1.33097,-5.24353,-5.34645)"/></g></g></svg>