<svg xmlns="http://www.w3.org/2000/svg" xmlns:xlink="http://www.w3.org/1999/xlink" width="100%" height="100%" version="1.1" viewBox="0 0 32 32" xml:space="preserve" style="fill-rule:evenodd;clip-rule:evenodd;stroke-linecap:round;stroke-linejoin:round;stroke-miterlimit:1.5"><g id="Ebene1"><g><path d="M12.33,27.504L10.065,23.81L8.731,10.614L12.971,4.573L20.243,8.631L23.191,15.015L18.735,25.332L12.33,27.504Z" style="fill:none;stroke:#fff;stroke-width:2.05px" transform="matrix(1.21987,0,0,1.21987,-3.47035,-3.56467)"/></g><g><path d="M17.922,12.709L12.409,27.333L17.922,12.709Z" style="fill:none;stroke:#fff;stroke-width:2.05px" transform="matrix(1.21987,0,0,1.21987,-3.47035,-3.56467)"/></g><g><path d="M18.679,25.289L17.17,14.073L20.233,8.768L17.17,14.073C17.17,14.073 14.628,11.064 14.627,11.08L13.02,4.806L14.627,11.08L8.731,10.617" style="fill:none;stroke:#fff;stroke-width:2.05px" transform="matrix(1.21987,0,0,1.21987,-3.47035,-3.56467)"/></g></g></svg>