<svg xmlns="http://www.w3.org/2000/svg" xmlns:xlink="http://www.w3.org/1999/xlink" width="100%" height="100%" version="1.1" viewBox="0 0 32 32" xml:space="preserve" style="fill-rule:evenodd;clip-rule:evenodd;stroke-linecap:round;stroke-linejoin:round;stroke-miterlimit:1.5"><g id="Ebene1"><g><path d="M12.33,27.504L11.129,25.169L8.731,10.614L12.971,4.573L20.243,8.631L23.191,15.015L18.735,25.332L12.33,27.504Z" style="fill:none;stroke:#000;stroke-width:1.56px" transform="matrix(1.27817,0,0,1.27817,-4.40087,-4.48452)"/></g><g><path d="M17.922,12.709L12.409,27.333L17.922,12.709Z" style="fill:none;stroke:#000;stroke-width:1.56px" transform="matrix(1.27817,0,0,1.27817,-4.40087,-4.48452)"/></g><g><path d="M18.679,25.289L17.922,12.785L20.233,8.768L17.922,12.785C17.922,12.785 14.511,9.569 14.51,9.585L13.02,4.806L14.51,9.585L8.731,10.617" style="fill:none;stroke:#000;stroke-width:1.56px" transform="matrix(1.27817,0,0,1.27817,-4.40087,-4.48452)"/></g></g></svg>